# xmcd
#
# Track frame offsets:
#	150
#	21160
#	44326
#	62909
#	95119
#	112097
#	135116
#	154222
#	172595
#	192100
#	207837
#	225148
#	251200
#	271886
#	293543
#	311152
#	333016
#
# Disc length: 4777 seconds
#
# Revision: 6
# Processed by: cddbd v1.5.2PL0 Copyright (c) Steve Scherf et al.
# Submitted via: EZCDAudioConverter 6.0.0.1
#
DISCID=e312a711
DTITLE=Various Artist - Akella Presents - vol.74 - Rockin' Blues  CD1
DYEAR=2016
DGENRE=Blues
TTITLE0=Bluebone - The Day You Turned Away
TTITLE1=Big Boy Bloater and The Limits - It Came Out Of The Swamp
TTITLE2=Tim Turner - The Sky is Cryin'
TTITLE3=The BluesBones - Voodoo Guitar
TTITLE4=Dennis Jones - Enjoy the Ride
TTITLE5=The Rides - RoadHouse
TTITLE6=The Record Company - Off The Ground
TTITLE7=Vargas Blues Band and Paul Shortino - Down By The River
TTITLE8=Mike Pachelli - You Got Me Where You Want Me
TTITLE9=The Naughty Blokes - Move You
TTITLE10=Jim Kohler Band - Listen, Understand
TTITLE11=Joe Bonamassa - Drive
TTITLE12=T.C. Carr and The Catch - Heartless
TTITLE13=The Buddaheads - What's Come Over You
TTITLE14=Brad Wilson - Blues Magic
TTITLE15=Chris Hicks - Dog Eat Dog World
TTITLE16=Jeff Michaels - Neighbors
EXTD=
EXTT0=
EXTT1=
EXTT2=
EXTT3=
EXTT4=
EXTT5=
EXTT6=
EXTT7=
EXTT8=
EXTT9=
EXTT10=
EXTT11=
EXTT12=
EXTT13=
EXTT14=
EXTT15=
EXTT16=
PLAYORDER=
